/* XPM */
static char *bitcoin128[] = {
/* columns rows colors chars-per-pixel */
"128 128 8 1 ",
"  c None",
". c gray31",
"X c #565656",
"o c gray34",
"O c gray37",
"+ c #5F5F5F",
"@ c #CEB06C",
"# c #CFB06C",
/* pixels */
"                                                               #                                                                ",
"                                                              ###                                                               ",
"                                                             #####                                                              ",
"                                                            #######                                                             ",
"                                                           #########                                                            ",
"                                                          ###########                                                           ",
"                                                         #############                                                          ",
"                                                        ###############                                                         ",
"                                                       #################                                                        ",
"                                                      ###################                                                       ",
"                                                     #####################                                                      ",
"                                                    #######################                                                     ",
"                                                   #########################                                                    ",
"                                                  ###########################                                                   ",
"                                                 #############################                                                  ",
"                                                ###############################                                                 ",
"                                               #################################                                                ",
"                                              ###################################                                               ",
"                                             #####################################                                              ",
"                                            #######################################                                             ",
"                                           #########################################                                            ",
"                                          ###########################################                                           ",
"                                         #############################################                                          ",
"                                        ###############################################                                         ",
"                                       #################################################                                        ",
"                                      ###################################################                                       ",
"                                     #####################################################                                      ",
"                                    #######################################################                                     ",
"                                   #########################################################                                    ",
"                                                                                                                                ",
"                                                                                                                                ",
"                                                                                                                                ",
"                                                                                                                                ",
"                                                                                                                                ",
"                                                                                                                                ",
"                                                                                                                                ",
"                                                                                                                                ",
"                                                                                                                                ",
"                                                                                                                                ",
"                                                                                                                                ",
"                                                                                                                                ",
"                                                                                                                                ",
"                                                                                                                                ",
"                    ..............................                           ..............................                     ",
"                   ..............................                             ..............................                    ",
"                  ..............................                               ..............................                   ",
"                 ..............................                                 ..............................                  ",
"                ..............................                                   ..............................                 ",
"               ..............................                                     ..............................                ",
"              ..............................                                       ..............................               ",
"             ..............................                                         ..............................              ",
"            ..............................                                           ..............................             ",
"           ..............................                                             ..............................            ",
"          ..............................                                               ..............................           ",
"         ..............................                                                 ..............................          ",
"        ..............................                                                   ..............................         ",
"       ..............................                                                     ..............................        ",
"      ..............................                                                       ..............................       ",
"     ..............................                                                         ..............................      ",
"    ..............................                                                           ..............................     ",
"   ..............................                                                             ..............................    ",
"  ..............................                                                               ..............................   ",
" ..............................                                                                 ..............................  ",
"XXXXXXXXXXXXXXXXXXXXXXXXXXXXXXX                                                                  .............................. ",
" ++++++++++++++++++++++++++++++                                                                 ..............................  ",
"  ++++++++++++++++++++++++++++++                                                               ..............................   ",
"   ++++++++++++++++++++++++++++++                                                             ..............................    ",
"    ++++++++++++++++++++++++++++++                                                           ..............................     ",
"     ++++++++++++++++++++++++++++++                                                         ..............................      ",
"      ++++++++++++++++++++++++++++++                                                       ..............................       ",
"       ++++++++++++++++++++++++++++++                                                     ..............................        ",
"        ++++++++++++++++++++++++++++++                                                   ..............................         ",
"         ++++++++++++++++++++++++++++++                                                 ..............................          ",
"          ++++++++++++++++++++++++++++++                                               ..............................           ",
"           ++++++++++++++++++++++++++++++                                             ..............................            ",
"            ++++++++++++++++++++++++++++++                                           ..............................             ",
"             ++++++++++++++++++++++++++++++                                         ..............................              ",
"              ++++++++++++++++++++++++++++++                                       ..............................               ",
"               ++++++++++++++++++++++++++++++                                     ..............................                ",
"                ++++++++++++++++++++++++++++++                                   ..............................                 ",
"                 ++++++++++++++++++++++++++++++                                 ..............................                  ",
"                  ++++++++++++++++++++++++++++++                               ..............................                   ",
"                   ++++++++++++++++++++++++++++++                             ..............................                    ",
"                    ++++++++++++++++++++++++++++++                           ..............................                     ",
"                     ++++++++++++++++++++++++++++++                         ..............................                      ",
"                      ++++++++++++++++++++++++++++++                       ..............................                       ",
"                       ++++++++++++++++++++++++++++++                     ..............................                        ",
"                        ++++++++++++++++++++++++++++++                   ..............................                         ",
"                         ++++++++++++++++++++++++++++++                 ..............................                          ",
"                          ++++++++++++++++++++++++++++++               ..............................                           ",
"                           ++++++++++++++++++++++++++++++             ..............................                            ",
"                            ++++++++++++++++++++++++++++++           ..............................                             ",
"                             ++++++++++++++++++++++++++++++         ..............................                              ",
"                              ++++++++++++++++++++++++++++++       ..............................                               ",
"                               ++++++++++++++++++++++++++++++     ..............................                                ",
"                                ++++++++++++++++++++++++++++++   ..............................                                 ",
"                                 ++++++++++++++++++++++++++++++ ..............................                                  ",
"                                  +++++++++++++++++++++++++++++X.............................                                   ",
"                                   ++++++++++++++++++++++++++++X............................                                    ",
"                                    +++++++++++++++++++++++++++X...........................                                     ",
"                                     ++++++++++++++++++++++++++X..........................                                      ",
"                                      +++++++++++++++++++++++++X.........................                                       ",
"                                       ++++++++++++++++++++++++X........................                                        ",
"                                        +++++++++++++++++++++++X.......................                                         ",
"                                         ++++++++++++++++++++++X......................                                          ",
"                                          +++++++++++++++++++++X.....................                                           ",
"                                           ++++++++++++++++++++X....................                                            ",
"                                            +++++++++++++++++++X...................                                             ",
"                                             ++++++++++++++++++X..................                                              ",
"                                              +++++++++++++++++X.................                                               ",
"                                               ++++++++++++++++X................                                                ",
"                                                +++++++++++++++X...............                                                 ",
"                                                 ++++++++++++++X..............                                                  ",
"                                                  +++++++++++++X.............                                                   ",
"                                                   ++++++++++++X............                                                    ",
"                                                    +++++++++++X...........                                                     ",
"                                                     ++++++++++X..........                                                      ",
"                                                      +++++++++X.........                                                       ",
"                                                       ++++++++X........                                                        ",
"                                                        +++++++X.......                                                         ",
"                                                         ++++++X......                                                          ",
"                                                          +++++X.....                                                           ",
"                                                           ++++X....                                                            ",
"                                                           ++++X...                                                             ",
"                                                            +++X..                                                              ",
"                                                             ++X.                                                               ",
"                                                              +X                                                                ",
"                                                                                                                                "
};
