/* XPM */
static char *bitcoin32[] = {
/* columns rows colors chars-per-pixel */
"32 32 10 1 ",
"  c None",
". c gray31",
"X c #505050",
"o c gray32",
"O c #535353",
"+ c #5A5A5A",
"@ c gray36",
"# c gray37",
"$ c #5F5F5F",
"% c #CFB06C",
/* pixels */
"               %                ",
"              %%%               ",
"             %%%%%              ",
"            %%%%%%%             ",
"           %%%%%%%%%            ",
"          %%%%%%%%%%%           ",
"         %%%%%%%%%%%%%          ",
"                                ",
"                                ",
"                                ",
"                                ",
"    ........        .......     ",
"   ........          .......    ",
"  ........            .......   ",
" ........              .......  ",
"oooooooo                ........",
" #######                ....... ",
"  #######              .......  ",
"   #######            .......   ",
"    #######          .......    ",
"     #######        .......     ",
"      #######      .......      ",
"       #######    .......       ",
"        #######  .......        ",
"         #######o......         ",
"          ######o.....          ",
"           #####o....           ",
"            ####o...            ",
"             ###o..             ",
"              ##o.              ",
"               #o               ",
"               +                "
};
