/* XPM */
static char *bitcoin64[] = {
/* columns rows colors chars-per-pixel */
"64 64 11 1 ",
"  c None",
". c gray31",
"X c #505050",
"o c gray32",
"O c gray33",
"+ c #555555",
"@ c #5A5A5A",
"# c #5B5B5B",
"$ c gray37",
"% c #5F5F5F",
"& c #CFB06C",
/* pixels */
"                               &                                ",
"                              &&&                               ",
"                             &&&&&                              ",
"                            &&&&&&&                             ",
"                           &&&&&&&&&                            ",
"                          &&&&&&&&&&&                           ",
"                         &&&&&&&&&&&&&                          ",
"                        &&&&&&&&&&&&&&&                         ",
"                       &&&&&&&&&&&&&&&&&                        ",
"                      &&&&&&&&&&&&&&&&&&&                       ",
"                     &&&&&&&&&&&&&&&&&&&&&                      ",
"                    &&&&&&&&&&&&&&&&&&&&&&&                     ",
"                   &&&&&&&&&&&&&&&&&&&&&&&&&                    ",
"                  &&&&&&&&&&&&&&&&&&&&&&&&&&&                   ",
"                  &&&&&&&&&&&&&&&&&&&&&&&&&&&&                  ",
"                                                                ",
"                                                                ",
"                                                                ",
"                                                                ",
"                                                                ",
"                                                                ",
"                                                                ",
"         ...............               ...............          ",
"        ...............                 ...............         ",
"       ...............                   ...............        ",
"      ...............                     ...............       ",
"     ...............                       ...............      ",
"    ...............                         ...............     ",
"   ...............                           ...............    ",
"  ...............                             ...............   ",
" ...............                               ...............  ",
"OOOOOOOOOOOOOOOo                                ............... ",
" $$$$$$$$$$$%$%$                                ............... ",
"  $$$$$$$$$$%$$$$                              ...............  ",
"   $$$$$$$$$$$$$$$                            ...............   ",
"    $$$$$$$$$$$$$$$                          ...............    ",
"     $$$%%$$$$$$$$$$                        ...............     ",
"      $$%$$$$$%%$$$$$                      ...............      ",
"       $$$$$$$%$$$$$$$                    ...............       ",
"        $$$$$$$$$$$$$$$                  ...............        ",
"         $$$$$$$$$$$$$$$                ...............         ",
"          $$$$$$%%$$$$$%$              ...............          ",
"           $$$$$$%$$$$$%$$            ...............           ",
"            $$$$$$$$$$$%$$$          ...............            ",
"             $$$$$$$$$$$$$$$        ...............             ",
"              $$$$$$$$$$$$$$$      ...............              ",
"               $%$$$$$$$$$$$$$    ...............               ",
"                %%%$$$$$$$$$$$$  ...............                ",
"                 $$$$$$$$$$$$$$@...............                 ",
"                  $$$$$$$$$$$$$@..............                  ",
"                   $$$$$$$%$$%%@.............                   ",
"                    $$$$%%%$$%$@............                    ",
"                     $$$$$$$$$$@...........                     ",
"                      $$$$$$$$$@..........                      ",
"                       $$$$%$$$@.........                       ",
"                        $$$$%$$@........                        ",
"                         $$$$$$@.......                         ",
"                          $$$$$@......                          ",
"                           $$$$@.....                           ",
"                            $$$@....                            ",
"                             $$@...                             ",
"                              $@..                              ",
"                              $@o                               ",
"                                                                "
};
