/* XPM */
static char *bitcoin16[] = {
/* columns rows colors chars-per-pixel */
"16 16 12 1 ",
"  c None",
". c gray31",
"X c #505050",
"o c #515151",
"O c gray32",
"+ c #535353",
"@ c #5B5B5B",
"# c gray36",
"$ c #5D5D5D",
"% c gray37",
"& c #5F5F5F",
"* c #CFB06C",
/* pixels */
"       **       ",
"      ***       ",
"     *****      ",
"     ******     ",
"                ",
"   ..     ...   ",
" ....      ...  ",
"oooo        ....",
"####        ... ",
"  ###      o..  ",
"   ###    ...   ",
"    ###  ...    ",
"     ###o..     ",
"      ##o.      ",
"       #o       ",
"       @        "
};
